<svg xmlns="http://www.w3.org/2000/svg" xmlns:xlink="http://www.w3.org/1999/xlink" contentStyleType="text/css" data-diagram-type="DESCRIPTION" height="1090px" preserveAspectRatio="none" style="width:599px;height:1090px;background:#FFFFFF;" version="1.1" viewBox="0 0 599 1090" width="599px" zoomAndPan="magnify"><defs/><g><!--cluster Booking App--><g class="cluster" data-entity="Booking App" data-source-line="6" data-uid="ent0005" id="cluster_Booking App"><rect fill="none" height="1077" rx="2.5" ry="2.5" style="stroke:#181818;stroke-width:1;" width="468.74" x="124.48" y="7"/><text fill="#000000" font-family="sans-serif" font-size="14" font-weight="bold" lengthAdjust="spacing" textLength="99.7568" x="308.9716" y="21.9951">Booking App</text></g><!--entity UC1--><g class="entity" data-entity="UC1" data-source-line="7" data-uid="ent0006" id="entity_UC1"><ellipse cx="226.0526" cy="545.0025" fill="#F1F1F1" rx="80.3626" ry="18.4725" style="stroke:#181818;stroke-width:0.5;"/><text fill="#000000" font-family="sans-serif" font-size="14" lengthAdjust="spacing" textLength="131.5303" x="160.2875" y="549.651">Registrarse / Login</text></g><!--entity UC2--><g class="entity" data-entity="UC2" data-source-line="8" data-uid="ent0007" id="entity_UC2"><ellipse cx="226.046" cy="58.9952" fill="#F1F1F1" rx="72.876" ry="16.9752" style="stroke:#181818;stroke-width:0.5;"/><text fill="#000000" font-family="sans-serif" font-size="14" lengthAdjust="spacing" textLength="113.5381" x="169.2769" y="63.6436">Buscar servicios</text></g><!--entity UC3--><g class="entity" data-entity="UC3" data-source-line="9" data-uid="ent0008" id="entity_UC3"><ellipse cx="506.9154" cy="59.0011" fill="#F1F1F1" rx="70.3054" ry="16.4611" style="stroke:#181818;stroke-width:0.5;"/><text fill="#000000" font-family="sans-serif" font-size="14" lengthAdjust="spacing" textLength="107.1465" x="453.3422" y="63.6495">Filtrar servicios</text></g><!--entity UC4--><g class="entity" data-entity="UC4" data-source-line="10" data-uid="ent0009" id="entity_UC4"><ellipse cx="226.0463" cy="129.0033" fill="#F1F1F1" rx="75.9663" ry="17.5933" style="stroke:#181818;stroke-width:0.5;"/><text fill="#000000" font-family="sans-serif" font-size="14" lengthAdjust="spacing" textLength="121.0645" x="165.514" y="133.6517">Reservar servicio</text></g><!--entity UC5--><g class="entity" data-entity="UC5" data-source-line="11" data-uid="ent0010" id="entity_UC5"><ellipse cx="506.9178" cy="129.0036" fill="#F1F1F1" rx="66.5678" ry="15.7136" style="stroke:#181818;stroke-width:0.5;"/><text fill="#000000" font-family="sans-serif" font-size="14" lengthAdjust="spacing" textLength="97.5898" x="458.1229" y="133.652">Pagar reserva</text></g><!--entity UC6--><g class="entity" data-entity="UC6" data-source-line="12" data-uid="ent0011" id="entity_UC6"><ellipse cx="226.052" cy="198.9984" fill="#F1F1F1" rx="74.642" ry="17.3284" style="stroke:#181818;stroke-width:0.5;"/><text fill="#000000" font-family="sans-serif" font-size="14" lengthAdjust="spacing" textLength="117.8584" x="167.1228" y="203.6468">Ver mis reservas</text></g><!--entity UC7--><g class="entity" data-entity="UC7" data-source-line="13" data-uid="ent0012" id="entity_UC7"><ellipse cx="226.0479" cy="267.9956" fill="#F1F1F1" rx="71.2779" ry="16.6556" style="stroke:#181818;stroke-width:0.5;"/><text fill="#000000" font-family="sans-serif" font-size="14" lengthAdjust="spacing" textLength="109.5801" x="171.2579" y="272.644">Hacer pregunta</text></g><!--entity UC8--><g class="entity" data-entity="UC8" data-source-line="14" data-uid="ent0013" id="entity_UC8"><ellipse cx="226.054" cy="618.0028" fill="#F1F1F1" rx="85.564" ry="19.5128" style="stroke:#181818;stroke-width:0.5;"/><text fill="#000000" font-family="sans-serif" font-size="14" lengthAdjust="spacing" textLength="143.623" x="154.2425" y="622.6512">Responder pregunta</text></g><!--entity UC10--><g class="entity" data-entity="UC10" data-source-line="15" data-uid="ent0014" id="entity_UC10"><ellipse cx="226.0486" cy="689.9997" fill="#F1F1F1" rx="73.2486" ry="17.0497" style="stroke:#181818;stroke-width:0.5;"/><text fill="#000000" font-family="sans-serif" font-size="14" lengthAdjust="spacing" textLength="114.4541" x="168.8215" y="694.6482">Publicar servicio</text></g><!--entity UC11--><g class="entity" data-entity="UC11" data-source-line="16" data-uid="ent0015" id="entity_UC11"><ellipse cx="226.0536" cy="336.0007" fill="#F1F1F1" rx="67.4536" ry="15.8907" style="stroke:#181818;stroke-width:0.5;"/><text fill="#000000" font-family="sans-serif" font-size="14" lengthAdjust="spacing" textLength="99.8867" x="176.1102" y="340.6492">Editar servicio</text></g><!--entity UC12--><g class="entity" data-entity="UC12" data-source-line="17" data-uid="ent0016" id="entity_UC12"><ellipse cx="226.0482" cy="403.9996" fill="#F1F1F1" rx="73.7982" ry="17.1596" style="stroke:#181818;stroke-width:0.5;"/><text fill="#000000" font-family="sans-serif" font-size="14" lengthAdjust="spacing" textLength="115.8008" x="168.1478" y="408.6481">Eliminar servicio</text></g><!--entity UC13--><g class="entity" data-entity="UC13" data-source-line="18" data-uid="ent0017" id="entity_UC13"><ellipse cx="226.0525" cy="473.9985" fill="#F1F1F1" rx="75.0925" ry="17.4185" style="stroke:#181818;stroke-width:0.5;"/><text fill="#000000" font-family="sans-serif" font-size="14" lengthAdjust="spacing" textLength="118.9521" x="166.5764" y="478.6469">Ver mis servicios</text></g><!--entity UC14--><g class="entity" data-entity="UC14" data-source-line="19" data-uid="ent0018" id="entity_UC14"><ellipse cx="226.0523" cy="760.9985" fill="#F1F1F1" rx="80.3423" ry="18.4685" style="stroke:#181818;stroke-width:0.5;"/><text fill="#000000" font-family="sans-serif" font-size="14" lengthAdjust="spacing" textLength="131.4824" x="160.3111" y="765.6469">Gestionar usuarios</text></g><!--entity UC15--><g class="entity" data-entity="UC15" data-source-line="20" data-uid="ent0019" id="entity_UC15"><ellipse cx="226.0459" cy="831.9992" fill="#F1F1F1" rx="73.2959" ry="17.0592" style="stroke:#181818;stroke-width:0.5;"/><text fill="#000000" font-family="sans-serif" font-size="14" lengthAdjust="spacing" textLength="114.5703" x="168.7608" y="836.6476">Gestionar pagos</text></g><!--entity UC16--><g class="entity" data-entity="UC16" data-source-line="21" data-uid="ent0020" id="entity_UC16"><ellipse cx="226.046" cy="902.9992" fill="#F1F1F1" rx="80.796" ry="18.5592" style="stroke:#181818;stroke-width:0.5;"/><text fill="#000000" font-family="sans-serif" font-size="14" lengthAdjust="spacing" textLength="132.5488" x="159.7716" y="907.6476">Gestionar reservas</text></g><!--entity UC17--><g class="entity" data-entity="UC17" data-source-line="22" data-uid="ent0021" id="entity_UC17"><ellipse cx="226.0481" cy="976.0016" fill="#F1F1F1" rx="85.5581" ry="19.5116" style="stroke:#181818;stroke-width:0.5;"/><text fill="#000000" font-family="sans-serif" font-size="14" lengthAdjust="spacing" textLength="143.6094" x="154.2434" y="980.6501">Gestionar preguntas</text></g><!--entity UC18--><g class="entity" data-entity="UC18" data-source-line="23" data-uid="ent0022" id="entity_UC18"><ellipse cx="226.0524" cy="1049.0025" fill="#F1F1F1" rx="81.2624" ry="18.6525" style="stroke:#181818;stroke-width:0.5;"/><text fill="#000000" font-family="sans-serif" font-size="14" lengthAdjust="spacing" textLength="133.6426" x="159.2312" y="1053.6509">Gestionar servicios</text></g><!--entity Cliente--><g class="entity" data-entity="Cliente" data-source-line="2" data-uid="ent0002" id="entity_Cliente"><ellipse cx="41.7418" cy="169.35" fill="#F1F1F1" rx="8" ry="8" style="stroke:#181818;stroke-width:0.5;"/><path d="M41.7418,177.35 L41.7418,204.35 M28.7418,185.35 L54.7418,185.35 M41.7418,204.35 L28.7418,219.35 M41.7418,204.35 L54.7418,219.35" fill="none" style="stroke:#181818;stroke-width:0.5;"/><text fill="#000000" font-family="sans-serif" font-size="14" lengthAdjust="spacing" textLength="49.1436" x="17.17" y="233.8451">Cliente</text></g><!--entity Proveedor--><g class="entity" data-entity="Proveedor" data-source-line="3" data-uid="ent0003" id="entity_Proveedor"><ellipse cx="41.7417" cy="484.35" fill="#F1F1F1" rx="8" ry="8" style="stroke:#181818;stroke-width:0.5;"/><path d="M41.7417,492.35 L41.7417,519.35 M28.7417,500.35 L54.7417,500.35 M41.7417,519.35 L28.7417,534.35 M41.7417,519.35 L54.7417,534.35" fill="none" style="stroke:#181818;stroke-width:0.5;"/><text fill="#000000" font-family="sans-serif" font-size="14" lengthAdjust="spacing" textLength="71.4834" x="6" y="548.8451">Proveedor</text></g><!--entity Admin--><g class="entity" data-entity="Admin" data-source-line="4" data-uid="ent0004" id="entity_Admin"><ellipse cx="41.7421" cy="852.35" fill="#F1F1F1" rx="8" ry="8" style="stroke:#181818;stroke-width:0.5;"/><path d="M41.7421,860.35 L41.7421,887.35 M28.7421,868.35 L54.7421,868.35 M41.7421,887.35 L28.7421,902.35 M41.7421,887.35 L54.7421,902.35" fill="none" style="stroke:#181818;stroke-width:0.5;"/><text fill="#000000" font-family="sans-serif" font-size="14" lengthAdjust="spacing" textLength="44.8643" x="19.31" y="916.8451">Admin</text></g><!--link Cliente to UC1--><g class="link" data-entity-1="Cliente" data-entity-2="UC1" data-source-line="26" data-uid="lnk23" id="link_Cliente_UC1"><path d="M47.21,237.5 C56.51,311.41 80.17,469.4 116.48,509 C127.62,521.15 137.2722,527.2602 152.9022,532.6002" fill="none" id="Cliente-to-UC1" style="stroke:#181818;stroke-width:1;"/><polygon fill="#181818" points="158.58,534.54,151.3565,527.8451,153.8485,532.9235,148.7701,535.4155,158.58,534.54" style="stroke:#181818;stroke-width:1;"/></g><!--link Cliente to UC2--><g class="link" data-entity-1="Cliente" data-entity-2="UC2" data-source-line="27" data-uid="lnk24" id="link_Cliente_UC2"><path d="M61.66,160.47 C74.38,138.2 93.08,111.25 116.48,94 C131.71,82.78 144.9266,76.7624 162.7366,71.4924" fill="none" id="Cliente-to-UC2" style="stroke:#181818;stroke-width:1;"/><polygon fill="#181818" points="168.49,69.79,158.7249,68.5081,163.6955,71.2087,160.9948,76.1793,168.49,69.79" style="stroke:#181818;stroke-width:1;"/></g><!--link Cliente to UC4--><g class="link" data-entity-1="Cliente" data-entity-2="UC4" data-source-line="28" data-uid="lnk25" id="link_Cliente_UC4"><path d="M66.63,186.68 C80.9,179.57 99.49,170.74 116.48,164 C136.09,156.23 152.4413,150.6437 171.5513,144.6937" fill="none" id="Cliente-to-UC4" style="stroke:#181818;stroke-width:1;"/><polygon fill="#181818" points="177.28,142.91,167.4978,141.7663,172.506,144.3964,169.876,149.4047,177.28,142.91" style="stroke:#181818;stroke-width:1;"/></g><!--link Cliente to UC6--><g class="link" data-entity-1="Cliente" data-entity-2="UC6" data-source-line="29" data-uid="lnk26" id="link_Cliente_UC6"><path d="M66.57,199 C88.1,199 114.93,199 145.15,199" fill="none" id="Cliente-to-UC6" style="stroke:#181818;stroke-width:1;"/><polygon fill="#181818" points="151.15,199,142.15,195,146.15,199,142.15,203,151.15,199" style="stroke:#181818;stroke-width:1;"/></g><!--link Cliente to UC7--><g class="link" data-entity-1="Cliente" data-entity-2="UC7" data-source-line="30" data-uid="lnk27" id="link_Cliente_UC7"><path d="M66.61,211.37 C80.87,218.5 99.46,227.33 116.48,234 C136.62,241.89 153.643,247.5262 173.113,253.3662" fill="none" id="Cliente-to-UC7" style="stroke:#181818;stroke-width:1;"/><polygon fill="#181818" points="178.86,255.09,171.3887,248.6729,174.0708,253.6535,169.0902,256.3356,178.86,255.09" style="stroke:#181818;stroke-width:1;"/></g><!--link Proveedor to UC1--><g class="link" data-entity-1="Proveedor" data-entity-2="UC1" data-source-line="32" data-uid="lnk28" id="link_Proveedor_UC1"><path d="M77.89,519.98 C101.28,523.95 126.7751,528.2832 154.5651,533.0132" fill="none" id="Proveedor-to-UC1" style="stroke:#181818;stroke-width:1;"/><polygon fill="#181818" points="160.48,534.02,152.2788,528.5666,155.5509,533.181,150.9364,536.4532,160.48,534.02" style="stroke:#181818;stroke-width:1;"/></g><!--link Proveedor to UC10--><g class="link" data-entity-1="Proveedor" data-entity-2="UC10" data-source-line="33" data-uid="lnk29" id="link_Proveedor_UC10"><path d="M53.79,552.45 C64.8,584.18 84.7,628.2 116.48,655 C130.49,666.81 142.8026,672.9274 160.1526,678.1274" fill="none" id="Proveedor-to-UC10" style="stroke:#181818;stroke-width:1;"/><polygon fill="#181818" points="165.9,679.85,158.4273,673.4345,161.1105,678.4145,156.1305,681.0978,165.9,679.85" style="stroke:#181818;stroke-width:1;"/></g><!--link Proveedor to UC11--><g class="link" data-entity-1="Proveedor" data-entity-2="UC11" data-source-line="34" data-uid="lnk30" id="link_Proveedor_UC11"><path d="M52.97,475.63 C63.63,442.83 83.48,396.67 116.48,369 C130.98,356.85 144.0777,350.735 162.0277,345.885" fill="none" id="Proveedor-to-UC11" style="stroke:#181818;stroke-width:1;"/><polygon fill="#181818" points="167.82,344.32,158.0882,342.806,162.9931,345.6242,160.1749,350.5291,167.82,344.32" style="stroke:#181818;stroke-width:1;"/></g><!--link Proveedor to UC12--><g class="link" data-entity-1="Proveedor" data-entity-2="UC12" data-source-line="35" data-uid="lnk31" id="link_Proveedor_UC12"><path d="M73.84,475.46 C86,462.4 100.79,448.68 116.48,439 C133.08,428.76 147.2278,422.9167 165.4278,417.5167" fill="none" id="Proveedor-to-UC12" style="stroke:#181818;stroke-width:1;"/><polygon fill="#181818" points="171.18,415.81,161.414,414.5353,166.3865,417.2322,163.6896,422.2048,171.18,415.81" style="stroke:#181818;stroke-width:1;"/></g><!--link Proveedor to UC13--><g class="link" data-entity-1="Proveedor" data-entity-2="UC13" data-source-line="36" data-uid="lnk32" id="link_Proveedor_UC13"><path d="M77.89,506.29 C104.07,500.54 134.4493,493.8752 164.4093,487.3052" fill="none" id="Proveedor-to-UC13" style="stroke:#181818;stroke-width:1;"/><polygon fill="#181818" points="170.27,486.02,160.6221,484.0407,165.3861,487.091,162.3357,491.855,170.27,486.02" style="stroke:#181818;stroke-width:1;"/></g><!--link Proveedor to UC8--><g class="link" data-entity-1="Proveedor" data-entity-2="UC8" data-source-line="37" data-uid="lnk33" id="link_Proveedor_UC8"><path d="M77.88,551.3 C89.4,561.99 102.78,572.91 116.48,581 C132.26,590.31 145.0203,595.8355 162.2003,601.4855" fill="none" id="Proveedor-to-UC8" style="stroke:#181818;stroke-width:1;"/><polygon fill="#181818" points="167.9,603.36,160.6001,596.7485,163.1503,601.798,158.1008,604.3481,167.9,603.36" style="stroke:#181818;stroke-width:1;"/></g><!--link Admin to UC1--><g class="link" data-entity-1="Admin" data-entity-2="UC1" data-source-line="39" data-uid="lnk34" id="link_Admin_UC1"><path d="M47.51,843.5 C57.18,771.25 81.22,619.2 116.48,581 C127.73,568.82 137.5085,562.6788 153.2385,557.3388" fill="none" id="Admin-to-UC1" style="stroke:#181818;stroke-width:1;"/><polygon fill="#181818" points="158.92,555.41,149.1119,554.5154,154.1854,557.0173,151.6835,562.0908,158.92,555.41" style="stroke:#181818;stroke-width:1;"/></g><!--link Admin to UC14--><g class="link" data-entity-1="Admin" data-entity-2="UC14" data-source-line="40" data-uid="lnk35" id="link_Admin_UC14"><path d="M64.63,849.07 C77.82,831.46 96,810.66 116.48,797 C131.68,786.86 144.2603,781.1724 161.4603,775.7224" fill="none" id="Admin-to-UC14" style="stroke:#181818;stroke-width:1;"/><polygon fill="#181818" points="167.18,773.91,157.3922,772.8154,162.4136,775.4203,159.8086,780.4417,167.18,773.91" style="stroke:#181818;stroke-width:1;"/></g><!--link Admin to UC15--><g class="link" data-entity-1="Admin" data-entity-2="UC15" data-source-line="41" data-uid="lnk36" id="link_Admin_UC15"><path d="M64.37,876.07 C92.01,868.49 134.8436,856.7367 171.3836,846.7167" fill="none" id="Admin-to-UC15" style="stroke:#181818;stroke-width:1;"/><polygon fill="#181818" points="177.17,845.13,167.4326,843.6525,172.348,846.4523,169.5483,851.3677,177.17,845.13" style="stroke:#181818;stroke-width:1;"/></g><!--link Admin to UC16--><g class="link" data-entity-1="Admin" data-entity-2="UC16" data-source-line="42" data-uid="lnk37" id="link_Admin_UC16"><path d="M64.37,884.49 C86.25,887.01 115.3294,890.3637 147.1194,894.0237" fill="none" id="Admin-to-UC16" style="stroke:#181818;stroke-width:1;"/><polygon fill="#181818" points="153.08,894.71,144.5966,889.7069,148.1128,894.1381,143.6816,897.6544,153.08,894.71" style="stroke:#181818;stroke-width:1;"/></g><!--link Admin to UC17--><g class="link" data-entity-1="Admin" data-entity-2="UC17" data-source-line="43" data-uid="lnk38" id="link_Admin_UC17"><path d="M64.64,902.05 C78.65,914.05 97.67,928.89 116.48,939 C132.97,947.86 146.2901,953.3362 163.7501,959.0762" fill="none" id="Admin-to-UC17" style="stroke:#181818;stroke-width:1;"/><polygon fill="#181818" points="169.45,960.95,162.1494,954.3393,164.7001,959.3885,159.6509,961.9392,169.45,960.95" style="stroke:#181818;stroke-width:1;"/></g><!--link Admin to UC18--><g class="link" data-entity-1="Admin" data-entity-2="UC18" data-source-line="44" data-uid="lnk39" id="link_Admin_UC18"><path d="M55.6,920.35 C67.23,949.57 87.07,988.77 116.48,1013 C129.74,1023.92 140.7292,1029.6989 157.0292,1035.0489" fill="none" id="Admin-to-UC18" style="stroke:#181818;stroke-width:1;"/><polygon fill="#181818" points="162.73,1036.92,155.4262,1030.3128,157.9793,1035.3607,152.9314,1037.9138,162.73,1036.92" style="stroke:#181818;stroke-width:1;"/></g><!--link UC4 to UC5--><g class="link" data-entity-1="UC4" data-entity-2="UC5" data-source-line="46" data-uid="lnk40" id="link_UC4_UC5"><path d="M302.51,129 C345.42,129 392.65,129 433.89,129" fill="none" id="UC4-to-UC5" style="stroke:#181818;stroke-width:1;"/><polygon fill="#181818" points="439.89,129,430.89,125,434.89,129,430.89,133,439.89,129" style="stroke:#181818;stroke-width:1;"/><text fill="#000000" font-family="sans-serif" font-size="13" lengthAdjust="spacing" textLength="63.0068" x="342.61" y="125.0669">&#171;include&#187;</text></g><!--link UC2 to UC3--><g class="link" data-entity-1="UC2" data-entity-2="UC3" data-source-line="47" data-uid="lnk41" id="link_UC2_UC3"><path d="M299.23,59 C341.51,59 388.64,59 430.45,59" fill="none" id="UC2-to-UC3" style="stroke:#181818;stroke-width:1;"/><polygon fill="#181818" points="436.45,59,427.45,55,431.45,59,427.45,63,436.45,59" style="stroke:#181818;stroke-width:1;"/><text fill="#000000" font-family="sans-serif" font-size="13" lengthAdjust="spacing" textLength="61.1851" x="343.61" y="55.0669">&#171;extend&#187;</text></g><!--SRC=[TPDDJyCm343l-HNMxXDRruy9JPMsQS21muG4zv26OD4bLP9EI8Z_JZgoqZJb-EnNnt7SchzPi0eqYdSB5MhEB2f9ABDAmxv6BYttTDJgp7cbjETjTK99IFS9bQBcCDifzO5ImBPfPl1505h36JKkyyG56gkfTd03ZqgWd04ryBnV3hLTQnZLOBW-8qDbl9CCdJkikqAHj0hFwz83oqlfK3fIuGpzgteX6melNCC9pLMvdfGFdGVAdDLeBbffhrMAKI-DabLihODcsjSQMTpnSZ6q3XNQ2ISOug56zp0JLZ9rj_4Oby4Sxxdfzi4LQqrBzK1BfxM6YZydctP6urpc_vJoq-gzOjgBRh0ctuJutONvlBniMSZ9YDCHvoCk2EdNloyPHHPnQC9Auj0g2gq9kVnV_M41fI5c8UOX5Y6wokw-dZAuXSq69QlRYfUbooG-ixfa-AVbiYhB7m00]--></g></svg>