<svg xmlns="http://www.w3.org/2000/svg" xmlns:xlink="http://www.w3.org/1999/xlink" contentStyleType="text/css" data-diagram-type="CLASS" height="1360px" preserveAspectRatio="none" style="width:1523px;height:1360px;background:#FFFFFF;" version="1.1" viewBox="0 0 1523 1360" width="1523px" zoomAndPan="magnify"><defs/><g><!--class Usuarios--><g class="entity" data-entity="Usuarios" data-source-line="2" data-uid="ent0002" id="entity_Usuarios"><rect fill="#F1F1F1" height="227.2656" rx="2.5" ry="2.5" style="stroke:#181818;stroke-width:0.5;" width="440.709" x="908.56" y="164.6"/><ellipse cx="1094.4155" cy="180.6" fill="#ADD1B2" rx="11" ry="11" style="stroke:#181818;stroke-width:1;"/><path d="M1097.3842,186.2406 Q1096.8061,186.5375 1096.1655,186.6781 Q1095.5248,186.8344 1094.8217,186.8344 Q1092.3217,186.8344 1090.9936,185.1937 Q1089.6811,183.5375 1089.6811,180.4125 Q1089.6811,177.2875 1090.9936,175.6312 Q1092.3217,173.975 1094.8217,173.975 Q1095.5248,173.975 1096.1655,174.1312 Q1096.8217,174.2875 1097.3842,174.5844 L1097.3842,177.3031 Q1096.7592,176.725 1096.1655,176.4594 Q1095.5717,176.1781 1094.9467,176.1781 Q1093.603,176.1781 1092.9155,177.2562 Q1092.228,178.3187 1092.228,180.4125 Q1092.228,182.5062 1092.9155,183.5844 Q1093.603,184.6469 1094.9467,184.6469 Q1095.5717,184.6469 1096.1655,184.3812 Q1096.7592,184.1 1097.3842,183.5219 L1097.3842,186.2406 Z " fill="#000000"/><text fill="#000000" font-family="sans-serif" font-size="14" lengthAdjust="spacing" textLength="60.498" x="1114.9155" y="185.4467">Usuarios</text><line style="stroke:#181818;stroke-width:0.5;" x1="909.56" x2="1348.269" y1="196.6" y2="196.6"/><ellipse cx="919.56" cy="210.2484" fill="none" rx="3" ry="3" style="stroke:#038048;stroke-width:1;"/><text fill="#000000" font-family="sans-serif" font-size="14" lengthAdjust="spacing" textLength="106.3193" x="928.56" y="213.5951">id_usuarios: int</text><ellipse cx="919.56" cy="226.5453" fill="none" rx="3" ry="3" style="stroke:#038048;stroke-width:1;"/><text fill="#000000" font-family="sans-serif" font-size="14" lengthAdjust="spacing" textLength="82.0381" x="928.56" y="229.892">nombre: str</text><ellipse cx="919.56" cy="242.8422" fill="none" rx="3" ry="3" style="stroke:#038048;stroke-width:1;"/><text fill="#000000" font-family="sans-serif" font-size="14" lengthAdjust="spacing" textLength="72.6592" x="928.56" y="246.1889">correo: str</text><ellipse cx="919.56" cy="259.1391" fill="none" rx="3" ry="3" style="stroke:#038048;stroke-width:1;"/><text fill="#000000" font-family="sans-serif" font-size="14" lengthAdjust="spacing" textLength="85.2441" x="928.56" y="262.4857">telefono: str</text><ellipse cx="919.56" cy="275.4359" fill="none" rx="3" ry="3" style="stroke:#038048;stroke-width:1;"/><text fill="#000000" font-family="sans-serif" font-size="14" lengthAdjust="spacing" textLength="106.0254" x="928.56" y="278.7826">contrasena: str</text><ellipse cx="919.56" cy="291.7328" fill="none" rx="3" ry="3" style="stroke:#038048;stroke-width:1;"/><text fill="#000000" font-family="sans-serif" font-size="14" lengthAdjust="spacing" textLength="80.1855" x="928.56" y="295.0795">imagen: str</text><ellipse cx="919.56" cy="308.0297" fill="none" rx="3" ry="3" style="stroke:#038048;stroke-width:1;"/><text fill="#000000" font-family="sans-serif" font-size="14" lengthAdjust="spacing" textLength="140.1504" x="928.56" y="311.3764">tipos_usuario_id: int</text><line style="stroke:#181818;stroke-width:1;" x1="909.56" x2="1348.269" y1="318.6781" y2="318.6781"/><ellipse cx="919.56" cy="332.3266" fill="#84BE84" rx="3" ry="3" style="stroke:#038048;stroke-width:1;"/><text fill="#000000" font-family="sans-serif" font-size="14" lengthAdjust="spacing" textLength="137.6895" x="928.56" y="335.6732">crear_usuario(data)</text><ellipse cx="919.56" cy="348.6234" fill="#84BE84" rx="3" ry="3" style="stroke:#038048;stroke-width:1;"/><text fill="#000000" font-family="sans-serif" font-size="14" lengthAdjust="spacing" textLength="377.6309" x="928.56" y="351.9701">actualizar_usuario(id_usuario, id_usuario_token, data)</text><ellipse cx="919.56" cy="364.9203" fill="#84BE84" rx="3" ry="3" style="stroke:#038048;stroke-width:1;"/><text fill="#000000" font-family="sans-serif" font-size="14" lengthAdjust="spacing" textLength="414.709" x="928.56" y="368.267">actualizar_foto_perfil_usuario(id_usuario, id_usuario_token)</text><ellipse cx="919.56" cy="381.2172" fill="#84BE84" rx="3" ry="3" style="stroke:#038048;stroke-width:1;"/><text fill="#000000" font-family="sans-serif" font-size="14" lengthAdjust="spacing" textLength="246.1416" x="928.56" y="384.5639">obtener_usuario_por_id(id_usuario)</text></g><!--class TiposUsuario--><g class="entity" data-entity="TiposUsuario" data-source-line="17" data-uid="ent0003" id="entity_TiposUsuario"><rect fill="#F1F1F1" height="80.5938" rx="2.5" ry="2.5" style="stroke:#181818;stroke-width:0.5;" width="166.1504" x="1045.84" y="7"/><ellipse cx="1080.5315" cy="23" fill="#ADD1B2" rx="11" ry="11" style="stroke:#181818;stroke-width:1;"/><path d="M1083.5002,28.6406 Q1082.9221,28.9375 1082.2815,29.0781 Q1081.6408,29.2344 1080.9377,29.2344 Q1078.4377,29.2344 1077.1096,27.5938 Q1075.7971,25.9375 1075.7971,22.8125 Q1075.7971,19.6875 1077.1096,18.0313 Q1078.4377,16.375 1080.9377,16.375 Q1081.6408,16.375 1082.2815,16.5313 Q1082.9377,16.6875 1083.5002,16.9844 L1083.5002,19.7031 Q1082.8752,19.125 1082.2815,18.8594 Q1081.6877,18.5781 1081.0627,18.5781 Q1079.719,18.5781 1079.0315,19.6563 Q1078.344,20.7188 1078.344,22.8125 Q1078.344,24.9063 1079.0315,25.9844 Q1079.719,27.0469 1081.0627,27.0469 Q1081.6877,27.0469 1082.2815,26.7813 Q1082.8752,26.5 1083.5002,25.9219 L1083.5002,28.6406 Z " fill="#000000"/><text fill="#000000" font-family="sans-serif" font-size="14" lengthAdjust="spacing" textLength="90.3916" x="1098.9073" y="27.8467">TiposUsuario</text><line style="stroke:#181818;stroke-width:0.5;" x1="1046.84" x2="1210.9904" y1="39" y2="39"/><ellipse cx="1056.84" cy="52.6484" fill="none" rx="3" ry="3" style="stroke:#038048;stroke-width:1;"/><text fill="#000000" font-family="sans-serif" font-size="14" lengthAdjust="spacing" textLength="140.1504" x="1065.84" y="55.9951">id_tipos_usuario: int</text><ellipse cx="1056.84" cy="68.9453" fill="none" rx="3" ry="3" style="stroke:#038048;stroke-width:1;"/><text fill="#000000" font-family="sans-serif" font-size="14" lengthAdjust="spacing" textLength="54.5371" x="1065.84" y="72.292">tipo: str</text><line style="stroke:#181818;stroke-width:0.5;" x1="1046.84" x2="1210.9904" y1="79.5938" y2="79.5938"/></g><!--class Roles--><g class="entity" data-entity="Roles" data-source-line="22" data-uid="ent0004" id="entity_Roles"><rect fill="#F1F1F1" height="80.5938" rx="2.5" ry="2.5" style="stroke:#181818;stroke-width:0.5;" width="107.3135" x="1384.26" y="237.93"/><ellipse cx="1416.0106" cy="253.93" fill="#ADD1B2" rx="11" ry="11" style="stroke:#181818;stroke-width:1;"/><path d="M1418.9794,259.5706 Q1418.4013,259.8675 1417.7606,260.0081 Q1417.12,260.1644 1416.4169,260.1644 Q1413.9169,260.1644 1412.5888,258.5238 Q1411.2763,256.8675 1411.2763,253.7425 Q1411.2763,250.6175 1412.5888,248.9613 Q1413.9169,247.305 1416.4169,247.305 Q1417.12,247.305 1417.7606,247.4613 Q1418.4169,247.6175 1418.9794,247.9144 L1418.9794,250.6331 Q1418.3544,250.055 1417.7606,249.7894 Q1417.1669,249.5081 1416.5419,249.5081 Q1415.1981,249.5081 1414.5106,250.5863 Q1413.8231,251.6488 1413.8231,253.7425 Q1413.8231,255.8363 1414.5106,256.9144 Q1415.1981,257.9769 1416.5419,257.9769 Q1417.1669,257.9769 1417.7606,257.7113 Q1418.3544,257.43 1418.9794,256.8519 L1418.9794,259.5706 Z " fill="#000000"/><text fill="#000000" font-family="sans-serif" font-size="14" lengthAdjust="spacing" textLength="38.0898" x="1433.733" y="258.7767">Roles</text><line style="stroke:#181818;stroke-width:0.5;" x1="1385.26" x2="1490.5735" y1="269.93" y2="269.93"/><ellipse cx="1395.26" cy="283.5784" fill="none" rx="3" ry="3" style="stroke:#038048;stroke-width:1;"/><text fill="#000000" font-family="sans-serif" font-size="14" lengthAdjust="spacing" textLength="81.3135" x="1404.26" y="286.9251">id_roles: int</text><ellipse cx="1395.26" cy="299.8753" fill="none" rx="3" ry="3" style="stroke:#038048;stroke-width:1;"/><text fill="#000000" font-family="sans-serif" font-size="14" lengthAdjust="spacing" textLength="54.5371" x="1404.26" y="303.222">tipo: str</text><line style="stroke:#181818;stroke-width:0.5;" x1="1385.26" x2="1490.5735" y1="310.5238" y2="310.5238"/></g><!--class UsuariosTieneRoles--><g class="entity" data-entity="UsuariosTieneRoles" data-source-line="27" data-uid="ent0005" id="entity_UsuariosTieneRoles"><rect fill="#F1F1F1" height="80.5938" rx="2.5" ry="2.5" style="stroke:#181818;stroke-width:0.5;" width="169.1289" x="1347.35" y="574.79"/><ellipse cx="1362.35" cy="590.79" fill="#ADD1B2" rx="11" ry="11" style="stroke:#181818;stroke-width:1;"/><path d="M1365.3188,596.4306 Q1364.7406,596.7275 1364.1,596.8681 Q1363.4594,597.0244 1362.7563,597.0244 Q1360.2563,597.0244 1358.9281,595.3838 Q1357.6156,593.7275 1357.6156,590.6025 Q1357.6156,587.4775 1358.9281,585.8213 Q1360.2563,584.165 1362.7563,584.165 Q1363.4594,584.165 1364.1,584.3213 Q1364.7563,584.4775 1365.3188,584.7744 L1365.3188,587.4931 Q1364.6938,586.915 1364.1,586.6494 Q1363.5063,586.3681 1362.8813,586.3681 Q1361.5375,586.3681 1360.85,587.4463 Q1360.1625,588.5088 1360.1625,590.6025 Q1360.1625,592.6963 1360.85,593.7744 Q1361.5375,594.8369 1362.8813,594.8369 Q1363.5063,594.8369 1364.1,594.5713 Q1364.6938,594.29 1365.3188,593.7119 L1365.3188,596.4306 Z " fill="#000000"/><text fill="#000000" font-family="sans-serif" font-size="14" lengthAdjust="spacing" textLength="137.1289" x="1376.35" y="595.6367">UsuariosTieneRoles</text><line style="stroke:#181818;stroke-width:0.5;" x1="1348.35" x2="1515.4789" y1="606.79" y2="606.79"/><ellipse cx="1358.35" cy="620.4384" fill="none" rx="3" ry="3" style="stroke:#038048;stroke-width:1;"/><text fill="#000000" font-family="sans-serif" font-size="14" lengthAdjust="spacing" textLength="106.3193" x="1367.35" y="623.7851">usuarios_id: int</text><ellipse cx="1358.35" cy="636.7353" fill="none" rx="3" ry="3" style="stroke:#038048;stroke-width:1;"/><text fill="#000000" font-family="sans-serif" font-size="14" lengthAdjust="spacing" textLength="81.3135" x="1367.35" y="640.082">roles_id: int</text><line style="stroke:#181818;stroke-width:0.5;" x1="1348.35" x2="1515.4789" y1="647.3838" y2="647.3838"/></g><!--class Servicios--><g class="entity" data-entity="Servicios" data-source-line="37" data-uid="ent0009" id="entity_Servicios"><rect fill="#F1F1F1" height="292.4531" rx="2.5" ry="2.5" style="stroke:#181818;stroke-width:0.5;" width="426.9961" x="504.42" y="468.86"/><ellipse cx="682.2296" cy="484.86" fill="#ADD1B2" rx="11" ry="11" style="stroke:#181818;stroke-width:1;"/><path d="M685.1983,490.5006 Q684.6202,490.7975 683.9796,490.9381 Q683.3389,491.0944 682.6358,491.0944 Q680.1358,491.0944 678.8077,489.4537 Q677.4952,487.7975 677.4952,484.6725 Q677.4952,481.5475 678.8077,479.8912 Q680.1358,478.235 682.6358,478.235 Q683.3389,478.235 683.9796,478.3912 Q684.6358,478.5475 685.1983,478.8444 L685.1983,481.5631 Q684.5733,480.985 683.9796,480.7194 Q683.3858,480.4381 682.7608,480.4381 Q681.4171,480.4381 680.7296,481.5162 Q680.0421,482.5787 680.0421,484.6725 Q680.0421,486.7662 680.7296,487.8444 Q681.4171,488.9069 682.7608,488.9069 Q683.3858,488.9069 683.9796,488.6412 Q684.5733,488.36 685.1983,487.7819 L685.1983,490.5006 Z " fill="#000000"/><text fill="#000000" font-family="sans-serif" font-size="14" lengthAdjust="spacing" textLength="62.877" x="702.7296" y="489.7067">Servicios</text><line style="stroke:#181818;stroke-width:0.5;" x1="505.42" x2="930.4161" y1="500.86" y2="500.86"/><ellipse cx="515.42" cy="514.5084" fill="none" rx="3" ry="3" style="stroke:#038048;stroke-width:1;"/><text fill="#000000" font-family="sans-serif" font-size="14" lengthAdjust="spacing" textLength="108.4795" x="524.42" y="517.8551">id_servicios: int</text><ellipse cx="515.42" cy="530.8053" fill="none" rx="3" ry="3" style="stroke:#038048;stroke-width:1;"/><text fill="#000000" font-family="sans-serif" font-size="14" lengthAdjust="spacing" textLength="82.0381" x="524.42" y="534.152">nombre: str</text><ellipse cx="515.42" cy="547.1022" fill="none" rx="3" ry="3" style="stroke:#038048;stroke-width:1;"/><text fill="#000000" font-family="sans-serif" font-size="14" lengthAdjust="spacing" textLength="107.7549" x="524.42" y="550.4489">descripcion: str</text><ellipse cx="515.42" cy="563.3991" fill="none" rx="3" ry="3" style="stroke:#038048;stroke-width:1;"/><text fill="#000000" font-family="sans-serif" font-size="14" lengthAdjust="spacing" textLength="84.0273" x="524.42" y="566.7457">precio: float</text><ellipse cx="515.42" cy="579.6959" fill="none" rx="3" ry="3" style="stroke:#038048;stroke-width:1;"/><text fill="#000000" font-family="sans-serif" font-size="14" lengthAdjust="spacing" textLength="80.1855" x="524.42" y="583.0426">imagen: str</text><ellipse cx="515.42" cy="595.9928" fill="none" rx="3" ry="3" style="stroke:#038048;stroke-width:1;"/><text fill="#000000" font-family="sans-serif" font-size="14" lengthAdjust="spacing" textLength="201.1543" x="524.42" y="599.3395">usuarios_proveedores_id: int</text><ellipse cx="515.42" cy="612.2897" fill="none" rx="3" ry="3" style="stroke:#038048;stroke-width:1;"/><text fill="#000000" font-family="sans-serif" font-size="14" lengthAdjust="spacing" textLength="142.3105" x="524.42" y="615.6364">tipos_servicio_id: int</text><ellipse cx="515.42" cy="628.5866" fill="none" rx="3" ry="3" style="stroke:#038048;stroke-width:1;"/><text fill="#000000" font-family="sans-serif" font-size="14" lengthAdjust="spacing" textLength="205.3789" x="524.42" y="631.9332">disponibilidad_servicio_id: int</text><line style="stroke:#181818;stroke-width:1;" x1="505.42" x2="930.4161" y1="639.235" y2="639.235"/><ellipse cx="515.42" cy="652.8834" fill="#84BE84" rx="3" ry="3" style="stroke:#038048;stroke-width:1;"/><text fill="#000000" font-family="sans-serif" font-size="14" lengthAdjust="spacing" textLength="267.0049" x="524.42" y="656.2301">crear_servicio(data, id_usuario_token)</text><ellipse cx="515.42" cy="669.1803" fill="#84BE84" rx="3" ry="3" style="stroke:#038048;stroke-width:1;"/><text fill="#000000" font-family="sans-serif" font-size="14" lengthAdjust="spacing" textLength="264.4414" x="524.42" y="672.527">obtener_servicios_usuario(id_usuario)</text><ellipse cx="515.42" cy="685.4772" fill="#84BE84" rx="3" ry="3" style="stroke:#038048;stroke-width:1;"/><text fill="#000000" font-family="sans-serif" font-size="14" lengthAdjust="spacing" textLength="179.8057" x="524.42" y="688.8239">obtener_todos_servicios()</text><ellipse cx="515.42" cy="701.7741" fill="#84BE84" rx="3" ry="3" style="stroke:#038048;stroke-width:1;"/><text fill="#000000" font-family="sans-serif" font-size="14" lengthAdjust="spacing" textLength="381.9512" x="524.42" y="705.1207">actualizar_servicio(data, id_usuario_token, id_servicio)</text><ellipse cx="515.42" cy="718.0709" fill="#84BE84" rx="3" ry="3" style="stroke:#038048;stroke-width:1;"/><text fill="#000000" font-family="sans-serif" font-size="14" lengthAdjust="spacing" textLength="329.9639" x="524.42" y="721.4176">eliminar_servicio(id_usuario_token, id_servicio)</text><ellipse cx="515.42" cy="734.3678" fill="#84BE84" rx="3" ry="3" style="stroke:#038048;stroke-width:1;"/><text fill="#000000" font-family="sans-serif" font-size="14" lengthAdjust="spacing" textLength="400.9961" x="524.42" y="737.7145">actualizar_imagen_servicio(id_usuario_token, id_servicio)</text><ellipse cx="515.42" cy="750.6647" fill="#84BE84" rx="3" ry="3" style="stroke:#038048;stroke-width:1;"/><text fill="#000000" font-family="sans-serif" font-size="14" lengthAdjust="spacing" textLength="250.4619" x="524.42" y="754.0114">obtener_servicio_por_id(id_servicio)</text></g><!--class TiposServicio--><g class="entity" data-entity="TiposServicio" data-source-line="56" data-uid="ent0010" id="entity_TiposServicio"><rect fill="#F1F1F1" height="80.5938" rx="2.5" ry="2.5" style="stroke:#181818;stroke-width:0.5;" width="168.3105" x="663.76" y="237.93"/><ellipse cx="698.353" cy="253.93" fill="#ADD1B2" rx="11" ry="11" style="stroke:#181818;stroke-width:1;"/><path d="M701.3218,259.5706 Q700.7436,259.8675 700.103,260.0081 Q699.4624,260.1644 698.7593,260.1644 Q696.2593,260.1644 694.9311,258.5238 Q693.6186,256.8675 693.6186,253.7425 Q693.6186,250.6175 694.9311,248.9613 Q696.2593,247.305 698.7593,247.305 Q699.4624,247.305 700.103,247.4613 Q700.7593,247.6175 701.3218,247.9144 L701.3218,250.6331 Q700.6968,250.055 700.103,249.7894 Q699.5093,249.5081 698.8843,249.5081 Q697.5405,249.5081 696.853,250.5863 Q696.1655,251.6488 696.1655,253.7425 Q696.1655,255.8363 696.853,256.9144 Q697.5405,257.9769 698.8843,257.9769 Q699.5093,257.9769 700.103,257.7113 Q700.6968,257.43 701.3218,256.8519 L701.3218,259.5706 Z " fill="#000000"/><text fill="#000000" font-family="sans-serif" font-size="14" lengthAdjust="spacing" textLength="92.7705" x="716.707" y="258.7767">TiposServicio</text><line style="stroke:#181818;stroke-width:0.5;" x1="664.76" x2="831.0705" y1="269.93" y2="269.93"/><ellipse cx="674.76" cy="283.5784" fill="none" rx="3" ry="3" style="stroke:#038048;stroke-width:1;"/><text fill="#000000" font-family="sans-serif" font-size="14" lengthAdjust="spacing" textLength="142.3105" x="683.76" y="286.9251">id_tipos_servicio: int</text><ellipse cx="674.76" cy="299.8753" fill="none" rx="3" ry="3" style="stroke:#038048;stroke-width:1;"/><text fill="#000000" font-family="sans-serif" font-size="14" lengthAdjust="spacing" textLength="54.5371" x="683.76" y="303.222">tipo: str</text><line style="stroke:#181818;stroke-width:0.5;" x1="664.76" x2="831.0705" y1="310.5238" y2="310.5238"/></g><!--class DisponibilidadServicio--><g class="entity" data-entity="DisponibilidadServicio" data-source-line="61" data-uid="ent0011" id="entity_DisponibilidadServicio"><rect fill="#F1F1F1" height="80.5938" rx="2.5" ry="2.5" style="stroke:#181818;stroke-width:0.5;" width="231.3789" x="397.23" y="237.93"/><ellipse cx="432.349" cy="253.93" fill="#ADD1B2" rx="11" ry="11" style="stroke:#181818;stroke-width:1;"/><path d="M435.3178,259.5706 Q434.7397,259.8675 434.099,260.0081 Q433.4584,260.1644 432.7553,260.1644 Q430.2553,260.1644 428.9272,258.5238 Q427.6147,256.8675 427.6147,253.7425 Q427.6147,250.6175 428.9272,248.9613 Q430.2553,247.305 432.7553,247.305 Q433.4584,247.305 434.099,247.4613 Q434.7553,247.6175 435.3178,247.9144 L435.3178,250.6331 Q434.6928,250.055 434.099,249.7894 Q433.5053,249.5081 432.8803,249.5081 Q431.5365,249.5081 430.849,250.5863 Q430.1615,251.6488 430.1615,253.7425 Q430.1615,255.8363 430.849,256.9144 Q431.5365,257.9769 432.8803,257.9769 Q433.5053,257.9769 434.099,257.7113 Q434.6928,257.43 435.3178,256.8519 L435.3178,259.5706 Z " fill="#000000"/><text fill="#000000" font-family="sans-serif" font-size="14" lengthAdjust="spacing" textLength="154.6699" x="450.8199" y="258.7767">DisponibilidadServicio</text><line style="stroke:#181818;stroke-width:0.5;" x1="398.23" x2="627.6089" y1="269.93" y2="269.93"/><ellipse cx="408.23" cy="283.5784" fill="none" rx="3" ry="3" style="stroke:#038048;stroke-width:1;"/><text fill="#000000" font-family="sans-serif" font-size="14" lengthAdjust="spacing" textLength="205.3789" x="417.23" y="286.9251">id_disponibilidad_servicio: int</text><ellipse cx="408.23" cy="299.8753" fill="none" rx="3" ry="3" style="stroke:#038048;stroke-width:1;"/><text fill="#000000" font-family="sans-serif" font-size="14" lengthAdjust="spacing" textLength="75.1338" x="417.23" y="303.222">estado: str</text><line style="stroke:#181818;stroke-width:0.5;" x1="398.23" x2="627.6089" y1="310.5238" y2="310.5238"/></g><!--class Reservas--><g class="entity" data-entity="Reservas" data-source-line="71" data-uid="ent0015" id="entity_Reservas"><rect fill="#F1F1F1" height="194.6719" rx="2.5" ry="2.5" style="stroke:#181818;stroke-width:0.5;" width="495.7246" x="212.06" y="854.61"/><ellipse cx="423.5913" cy="870.61" fill="#ADD1B2" rx="11" ry="11" style="stroke:#181818;stroke-width:1;"/><path d="M426.56,876.2506 Q425.9819,876.5475 425.3413,876.6881 Q424.7006,876.8444 423.9975,876.8444 Q421.4975,876.8444 420.1694,875.2037 Q418.8569,873.5475 418.8569,870.4225 Q418.8569,867.2975 420.1694,865.6412 Q421.4975,863.985 423.9975,863.985 Q424.7006,863.985 425.3413,864.1412 Q425.9975,864.2975 426.56,864.5944 L426.56,867.3131 Q425.935,866.735 425.3413,866.4694 Q424.7475,866.1881 424.1225,866.1881 Q422.7788,866.1881 422.0913,867.2662 Q421.4038,868.3287 421.4038,870.4225 Q421.4038,872.5162 422.0913,873.5944 Q422.7788,874.6569 424.1225,874.6569 Q424.7475,874.6569 425.3413,874.3912 Q425.935,874.11 426.56,873.5319 L426.56,876.2506 Z " fill="#000000"/><text fill="#000000" font-family="sans-serif" font-size="14" lengthAdjust="spacing" textLength="64.1621" x="444.0913" y="875.4567">Reservas</text><line style="stroke:#181818;stroke-width:0.5;" x1="213.06" x2="706.7846" y1="886.61" y2="886.61"/><ellipse cx="223.06" cy="900.2584" fill="none" rx="3" ry="3" style="stroke:#038048;stroke-width:1;"/><text fill="#000000" font-family="sans-serif" font-size="14" lengthAdjust="spacing" textLength="107.3857" x="232.06" y="903.6051">id_reservas: int</text><ellipse cx="223.06" cy="916.5553" fill="none" rx="3" ry="3" style="stroke:#038048;stroke-width:1;"/><text fill="#000000" font-family="sans-serif" font-size="14" lengthAdjust="spacing" textLength="214.7578" x="232.06" y="919.902">fecha_inicio_reserva: datetime</text><ellipse cx="223.06" cy="932.8522" fill="none" rx="3" ry="3" style="stroke:#038048;stroke-width:1;"/><text fill="#000000" font-family="sans-serif" font-size="14" lengthAdjust="spacing" textLength="195.6445" x="232.06" y="936.1989">fecha_fin_reserva: datetime</text><ellipse cx="223.06" cy="949.1491" fill="none" rx="3" ry="3" style="stroke:#038048;stroke-width:1;"/><text fill="#000000" font-family="sans-serif" font-size="14" lengthAdjust="spacing" textLength="108.4795" x="232.06" y="952.4957">servicios_id: int</text><ellipse cx="223.06" cy="965.4459" fill="none" rx="3" ry="3" style="stroke:#038048;stroke-width:1;"/><text fill="#000000" font-family="sans-serif" font-size="14" lengthAdjust="spacing" textLength="161.8135" x="232.06" y="968.7926">estados_reserva_id: int</text><line style="stroke:#181818;stroke-width:1;" x1="213.06" x2="706.7846" y1="976.0944" y2="976.0944"/><ellipse cx="223.06" cy="989.7428" fill="#84BE84" rx="3" ry="3" style="stroke:#038048;stroke-width:1;"/><text fill="#000000" font-family="sans-serif" font-size="14" lengthAdjust="spacing" textLength="355.8721" x="232.06" y="993.0895">crear_reservas(data, id_usuario_token, id_servicio)</text><ellipse cx="223.06" cy="1006.0397" fill="#84BE84" rx="3" ry="3" style="stroke:#038048;stroke-width:1;"/><text fill="#000000" font-family="sans-serif" font-size="14" lengthAdjust="spacing" textLength="417.7373" x="232.06" y="1009.3864">eliminar_reservas(id_usuario_token, id_servicio, id_reserva)</text><ellipse cx="223.06" cy="1022.3366" fill="#84BE84" rx="3" ry="3" style="stroke:#038048;stroke-width:1;"/><text fill="#000000" font-family="sans-serif" font-size="14" lengthAdjust="spacing" textLength="469.7246" x="232.06" y="1025.6832">actualizar_reservas(data, id_usuario_token, id_servicio, id_reserva)</text><ellipse cx="223.06" cy="1038.6334" fill="#84BE84" rx="3" ry="3" style="stroke:#038048;stroke-width:1;"/><text fill="#000000" font-family="sans-serif" font-size="14" lengthAdjust="spacing" textLength="248.2744" x="232.06" y="1041.9801">obtener_reserva_por_id(id_reserva)</text></g><!--class EstadosReserva--><g class="entity" data-entity="EstadosReserva" data-source-line="84" data-uid="ent0016" id="entity_EstadosReserva"><rect fill="#F1F1F1" height="80.5938" rx="2.5" ry="2.5" style="stroke:#181818;stroke-width:0.5;" width="187.8135" x="282.01" y="574.79"/><ellipse cx="316.806" cy="590.79" fill="#ADD1B2" rx="11" ry="11" style="stroke:#181818;stroke-width:1;"/><path d="M319.7748,596.4306 Q319.1967,596.7275 318.556,596.8681 Q317.9154,597.0244 317.2123,597.0244 Q314.7123,597.0244 313.3842,595.3838 Q312.0717,593.7275 312.0717,590.6025 Q312.0717,587.4775 313.3842,585.8213 Q314.7123,584.165 317.2123,584.165 Q317.9154,584.165 318.556,584.3213 Q319.2123,584.4775 319.7748,584.7744 L319.7748,587.4931 Q319.1498,586.915 318.556,586.6494 Q317.9623,586.3681 317.3373,586.3681 Q315.9935,586.3681 315.306,587.4463 Q314.6185,588.5088 314.6185,590.6025 Q314.6185,592.6963 315.306,593.7744 Q315.9935,594.8369 317.3373,594.8369 Q317.9623,594.8369 318.556,594.5713 Q319.1498,594.29 319.7748,593.7119 L319.7748,596.4306 Z " fill="#000000"/><text fill="#000000" font-family="sans-serif" font-size="14" lengthAdjust="spacing" textLength="111.8223" x="335.2052" y="595.6367">EstadosReserva</text><line style="stroke:#181818;stroke-width:0.5;" x1="283.01" x2="468.8235" y1="606.79" y2="606.79"/><ellipse cx="293.01" cy="620.4384" fill="none" rx="3" ry="3" style="stroke:#038048;stroke-width:1;"/><text fill="#000000" font-family="sans-serif" font-size="14" lengthAdjust="spacing" textLength="161.8135" x="302.01" y="623.7851">id_estados_reserva: int</text><ellipse cx="293.01" cy="636.7353" fill="none" rx="3" ry="3" style="stroke:#038048;stroke-width:1;"/><text fill="#000000" font-family="sans-serif" font-size="14" lengthAdjust="spacing" textLength="75.1338" x="302.01" y="640.082">estado: str</text><line style="stroke:#181818;stroke-width:0.5;" x1="283.01" x2="468.8235" y1="647.3838" y2="647.3838"/></g><!--class Pagos--><g class="entity" data-entity="Pagos" data-source-line="93" data-uid="ent0019" id="entity_Pagos"><rect fill="#F1F1F1" height="210.9688" rx="2.5" ry="2.5" style="stroke:#181818;stroke-width:0.5;" width="489.3535" x="215.24" y="1142.58"/><ellipse cx="434.783" cy="1158.58" fill="#ADD1B2" rx="11" ry="11" style="stroke:#181818;stroke-width:1;"/><path d="M437.7517,1164.2206 Q437.1736,1164.5175 436.533,1164.6581 Q435.8923,1164.8144 435.1892,1164.8144 Q432.6892,1164.8144 431.3611,1163.1738 Q430.0486,1161.5175 430.0486,1158.3925 Q430.0486,1155.2675 431.3611,1153.6113 Q432.6892,1151.955 435.1892,1151.955 Q435.8923,1151.955 436.533,1152.1113 Q437.1892,1152.2675 437.7517,1152.5644 L437.7517,1155.2831 Q437.1267,1154.705 436.533,1154.4394 Q435.9392,1154.1581 435.3142,1154.1581 Q433.9705,1154.1581 433.283,1155.2363 Q432.5955,1156.2988 432.5955,1158.3925 Q432.5955,1160.4863 433.283,1161.5644 Q433.9705,1162.6269 435.3142,1162.6269 Q435.9392,1162.6269 436.533,1162.3613 Q437.1267,1162.08 437.7517,1161.5019 L437.7517,1164.2206 Z " fill="#000000"/><text fill="#000000" font-family="sans-serif" font-size="14" lengthAdjust="spacing" textLength="41.7676" x="455.283" y="1163.4267">Pagos</text><line style="stroke:#181818;stroke-width:0.5;" x1="216.24" x2="703.5935" y1="1174.58" y2="1174.58"/><ellipse cx="226.24" cy="1188.2284" fill="none" rx="3" ry="3" style="stroke:#038048;stroke-width:1;"/><text fill="#000000" font-family="sans-serif" font-size="14" lengthAdjust="spacing" textLength="89.4072" x="235.24" y="1191.5751">id_pagos: int</text><ellipse cx="226.24" cy="1204.5253" fill="none" rx="3" ry="3" style="stroke:#038048;stroke-width:1;"/><text fill="#000000" font-family="sans-serif" font-size="14" lengthAdjust="spacing" textLength="85.75" x="235.24" y="1207.872">monto: float</text><ellipse cx="226.24" cy="1220.8222" fill="none" rx="3" ry="3" style="stroke:#038048;stroke-width:1;"/><text fill="#000000" font-family="sans-serif" font-size="14" lengthAdjust="spacing" textLength="152.9746" x="235.24" y="1224.1689">fecha_pago: datetime</text><ellipse cx="226.24" cy="1237.1191" fill="none" rx="3" ry="3" style="stroke:#038048;stroke-width:1;"/><text fill="#000000" font-family="sans-serif" font-size="14" lengthAdjust="spacing" textLength="106.3193" x="235.24" y="1240.4657">usuarios_id: int</text><ellipse cx="226.24" cy="1253.4159" fill="none" rx="3" ry="3" style="stroke:#038048;stroke-width:1;"/><text fill="#000000" font-family="sans-serif" font-size="14" lengthAdjust="spacing" textLength="107.3857" x="235.24" y="1256.7626">reservas_id: int</text><ellipse cx="226.24" cy="1269.7128" fill="none" rx="3" ry="3" style="stroke:#038048;stroke-width:1;"/><text fill="#000000" font-family="sans-serif" font-size="14" lengthAdjust="spacing" textLength="143.835" x="235.24" y="1273.0595">estados_pago_id: int</text><line style="stroke:#181818;stroke-width:1;" x1="216.24" x2="703.5935" y1="1280.3613" y2="1280.3613"/><ellipse cx="226.24" cy="1294.0097" fill="#84BE84" rx="3" ry="3" style="stroke:#038048;stroke-width:1;"/><text fill="#000000" font-family="sans-serif" font-size="14" lengthAdjust="spacing" textLength="434.3213" x="235.24" y="1297.3564">efectuar_pago(data, id_servicio, id_reserva, id_usuario_token)</text><ellipse cx="226.24" cy="1310.3066" fill="#84BE84" rx="3" ry="3" style="stroke:#038048;stroke-width:1;"/><text fill="#000000" font-family="sans-serif" font-size="14" lengthAdjust="spacing" textLength="400.9141" x="235.24" y="1313.6532">obtener_pagos_del_usuario(id_usuario, id_usuario_token)</text><ellipse cx="226.24" cy="1326.6034" fill="#84BE84" rx="3" ry="3" style="stroke:#038048;stroke-width:1;"/><text fill="#000000" font-family="sans-serif" font-size="14" lengthAdjust="spacing" textLength="463.3535" x="235.24" y="1329.9501">eliminar_pagos(id_usuario_token, id_servicio, id_reserva, id_pago)</text><ellipse cx="226.24" cy="1342.9003" fill="#84BE84" rx="3" ry="3" style="stroke:#038048;stroke-width:1;"/><text fill="#000000" font-family="sans-serif" font-size="14" lengthAdjust="spacing" textLength="212.3174" x="235.24" y="1346.247">obtener_pago_por_id(id_pago)</text></g><!--class EstadosPago--><g class="entity" data-entity="EstadosPago" data-source-line="107" data-uid="ent0020" id="entity_EstadosPago"><rect fill="#F1F1F1" height="80.5938" rx="2.5" ry="2.5" style="stroke:#181818;stroke-width:0.5;" width="169.835" x="7" y="911.65"/><ellipse cx="43.7833" cy="927.65" fill="#ADD1B2" rx="11" ry="11" style="stroke:#181818;stroke-width:1;"/><path d="M46.752,933.2906 Q46.1739,933.5875 45.5333,933.7281 Q44.8926,933.8844 44.1895,933.8844 Q41.6895,933.8844 40.3614,932.2438 Q39.0489,930.5875 39.0489,927.4625 Q39.0489,924.3375 40.3614,922.6813 Q41.6895,921.025 44.1895,921.025 Q44.8926,921.025 45.5333,921.1813 Q46.1895,921.3375 46.752,921.6344 L46.752,924.3531 Q46.127,923.775 45.5333,923.5094 Q44.9395,923.2281 44.3145,923.2281 Q42.9708,923.2281 42.2833,924.3063 Q41.5958,925.3688 41.5958,927.4625 Q41.5958,929.5563 42.2833,930.6344 Q42.9708,931.6969 44.3145,931.6969 Q44.9395,931.6969 45.5333,931.4313 Q46.127,931.15 46.752,930.5719 L46.752,933.2906 Z " fill="#000000"/><text fill="#000000" font-family="sans-serif" font-size="14" lengthAdjust="spacing" textLength="89.4277" x="62.624" y="932.4967">EstadosPago</text><line style="stroke:#181818;stroke-width:0.5;" x1="8" x2="175.835" y1="943.65" y2="943.65"/><ellipse cx="18" cy="957.2984" fill="none" rx="3" ry="3" style="stroke:#038048;stroke-width:1;"/><text fill="#000000" font-family="sans-serif" font-size="14" lengthAdjust="spacing" textLength="143.835" x="27" y="960.6451">id_estados_pago: int</text><ellipse cx="18" cy="973.5953" fill="none" rx="3" ry="3" style="stroke:#038048;stroke-width:1;"/><text fill="#000000" font-family="sans-serif" font-size="14" lengthAdjust="spacing" textLength="75.1338" x="27" y="976.942">estado: str</text><line style="stroke:#181818;stroke-width:0.5;" x1="8" x2="175.835" y1="984.2438" y2="984.2438"/></g><!--class Preguntas--><g class="entity" data-entity="Preguntas" data-source-line="117" data-uid="ent0024" id="entity_Preguntas"><rect fill="#F1F1F1" height="227.2656" rx="2.5" ry="2.5" style="stroke:#181818;stroke-width:0.5;" width="491.0078" x="742.41" y="838.32"/><ellipse cx="948.2606" cy="854.32" fill="#ADD1B2" rx="11" ry="11" style="stroke:#181818;stroke-width:1;"/><path d="M951.2293,859.9606 Q950.6512,860.2575 950.0106,860.3981 Q949.37,860.5544 948.6668,860.5544 Q946.1668,860.5544 944.8387,858.9137 Q943.5262,857.2575 943.5262,854.1325 Q943.5262,851.0075 944.8387,849.3512 Q946.1668,847.695 948.6668,847.695 Q949.37,847.695 950.0106,847.8512 Q950.6668,848.0075 951.2293,848.3044 L951.2293,851.0231 Q950.6043,850.445 950.0106,850.1794 Q949.4168,849.8981 948.7918,849.8981 Q947.4481,849.8981 946.7606,850.9762 Q946.0731,852.0387 946.0731,854.1325 Q946.0731,856.2262 946.7606,857.3044 Q947.4481,858.3669 948.7918,858.3669 Q949.4168,858.3669 950.0106,858.1012 Q950.6043,857.82 951.2293,857.2419 L951.2293,859.9606 Z " fill="#000000"/><text fill="#000000" font-family="sans-serif" font-size="14" lengthAdjust="spacing" textLength="70.8066" x="968.7606" y="859.1667">Preguntas</text><line style="stroke:#181818;stroke-width:0.5;" x1="743.41" x2="1232.4178" y1="870.32" y2="870.32"/><ellipse cx="753.41" cy="883.9684" fill="none" rx="3" ry="3" style="stroke:#038048;stroke-width:1;"/><text fill="#000000" font-family="sans-serif" font-size="14" lengthAdjust="spacing" textLength="118.4463" x="762.41" y="887.3151">id_preguntas: int</text><ellipse cx="753.41" cy="900.2653" fill="none" rx="3" ry="3" style="stroke:#038048;stroke-width:1;"/><text fill="#000000" font-family="sans-serif" font-size="14" lengthAdjust="spacing" textLength="64.1484" x="762.41" y="903.612">texto: str</text><ellipse cx="753.41" cy="916.5622" fill="none" rx="3" ry="3" style="stroke:#038048;stroke-width:1;"/><text fill="#000000" font-family="sans-serif" font-size="14" lengthAdjust="spacing" textLength="108.4795" x="762.41" y="919.9089">servicios_id: int</text><ellipse cx="753.41" cy="932.8591" fill="none" rx="3" ry="3" style="stroke:#038048;stroke-width:1;"/><text fill="#000000" font-family="sans-serif" font-size="14" lengthAdjust="spacing" textLength="177.2764" x="762.41" y="936.2057">usuarios_pregunta_id: int</text><ellipse cx="753.41" cy="949.1559" fill="none" rx="3" ry="3" style="stroke:#038048;stroke-width:1;"/><text fill="#000000" font-family="sans-serif" font-size="14" lengthAdjust="spacing" textLength="182.7178" x="762.41" y="952.5026">usuarios_respuesta_id: int</text><ellipse cx="753.41" cy="965.4528" fill="none" rx="3" ry="3" style="stroke:#038048;stroke-width:1;"/><text fill="#000000" font-family="sans-serif" font-size="14" lengthAdjust="spacing" textLength="187.4551" x="762.41" y="968.7995">fecha_respuesta: datetime</text><line style="stroke:#181818;stroke-width:1;" x1="743.41" x2="1232.4178" y1="976.1012" y2="976.1012"/><ellipse cx="753.41" cy="989.7497" fill="#84BE84" rx="3" ry="3" style="stroke:#038048;stroke-width:1;"/><text fill="#000000" font-family="sans-serif" font-size="14" lengthAdjust="spacing" textLength="278.7285" x="762.41" y="993.0964">obtener_preguntas_servicio(id_servicio)</text><ellipse cx="753.41" cy="1006.0466" fill="#84BE84" rx="3" ry="3" style="stroke:#038048;stroke-width:1;"/><text fill="#000000" font-family="sans-serif" font-size="14" lengthAdjust="spacing" textLength="366.9326" x="762.41" y="1009.3932">crear_preguntas(data, id_usuario_token, id_servicio)</text><ellipse cx="753.41" cy="1022.3434" fill="#84BE84" rx="3" ry="3" style="stroke:#038048;stroke-width:1;"/><text fill="#000000" font-family="sans-serif" font-size="14" lengthAdjust="spacing" textLength="465.0078" x="762.41" y="1025.6901">crear_respuestas(data, id_usuario_token, id_servicio, id_pregunta)</text><ellipse cx="753.41" cy="1038.6403" fill="#84BE84" rx="3" ry="3" style="stroke:#038048;stroke-width:1;"/><text fill="#000000" font-family="sans-serif" font-size="14" lengthAdjust="spacing" textLength="432.5645" x="762.41" y="1041.987">eliminar_pregunta(id_usuario_token, id_servicio, id_pregunta)</text><ellipse cx="753.41" cy="1054.9372" fill="#84BE84" rx="3" ry="3" style="stroke:#038048;stroke-width:1;"/><text fill="#000000" font-family="sans-serif" font-size="14" lengthAdjust="spacing" textLength="270.3955" x="762.41" y="1058.2839">obtener_pregunta_por_id(id_pregunta)</text></g><!--link Usuarios to UsuariosTieneRoles--><g class="link" data-entity-1="Usuarios" data-entity-2="UsuariosTieneRoles" data-source-line="32" data-uid="lnk6" id="link_Usuarios_UsuariosTieneRoles"><path codeLine="32" d="M1280.62,392.21 C1290.91,401.84 1300.8,411.77 1309.92,421.86 C1352.83,469.39 1390.29,533.74 1412.01,574.59" fill="none" id="Usuarios-UsuariosTieneRoles" style="stroke:#181818;stroke-width:1;"/><polygon fill="#000000" points="1329.8426,434.4833,1326.9401,425.4264,1322.171,428.8622,1329.8426,434.4833" style="stroke:#000000;stroke-width:1;"/><text fill="#000000" font-family="sans-serif" font-size="13" lengthAdjust="spacing" textLength="32.9443" x="1335.92" y="434.9269">tiene</text><text fill="#000000" font-family="sans-serif" font-size="13" lengthAdjust="spacing" textLength="8.271" x="1282.0911" y="412.0633">1</text><text fill="#000000" font-family="sans-serif" font-size="13" lengthAdjust="spacing" textLength="23.0356" x="1383.8116" y="563.7184">0..*</text></g><!--link Roles to UsuariosTieneRoles--><g class="link" data-entity-1="Roles" data-entity-2="UsuariosTieneRoles" data-source-line="33" data-uid="lnk7" id="link_Roles_UsuariosTieneRoles"><path codeLine="33" d="M1437.21,318.96 C1436.05,383.4 1433.78,510 1432.63,574.41" fill="none" id="Roles-UsuariosTieneRoles" style="stroke:#181818;stroke-width:1;"/><polygon fill="#000000" points="1440.0096,425.4272,1436.909,434.4182,1442.7859,434.5235,1440.0096,425.4272" style="stroke:#000000;stroke-width:1;"/><text fill="#000000" font-family="sans-serif" font-size="13" lengthAdjust="spacing" textLength="66.0728" x="1448.92" y="434.9269">pertenece</text><text fill="#000000" font-family="sans-serif" font-size="13" lengthAdjust="spacing" textLength="8.271" x="1428.4815" y="338.7246">1</text><text fill="#000000" font-family="sans-serif" font-size="13" lengthAdjust="spacing" textLength="23.0356" x="1434.5797" y="563.8093">0..*</text></g><!--link TiposUsuario to Usuarios--><g class="link" data-entity-1="TiposUsuario" data-entity-2="Usuarios" data-source-line="34" data-uid="lnk8" id="link_TiposUsuario_Usuarios"><path codeLine="34" d="M1128.92,87.92 C1128.92,109.29 1128.92,136.86 1128.92,164.31" fill="none" id="TiposUsuario-Usuarios" style="stroke:#181818;stroke-width:1;"/><polygon fill="#000000" points="1133.92,121.1664,1130.9811,130.2115,1136.8589,130.2115,1133.92,121.1664" style="stroke:#000000;stroke-width:1;"/><text fill="#000000" font-family="sans-serif" font-size="13" lengthAdjust="spacing" textLength="24.9146" x="1142.92" y="130.6669">tipo</text><text fill="#000000" font-family="sans-serif" font-size="13" lengthAdjust="spacing" textLength="8.271" x="1120.3049" y="107.6671">1</text><text fill="#000000" font-family="sans-serif" font-size="13" lengthAdjust="spacing" textLength="23.0356" x="1105.1848" y="153.6025">0..*</text></g><!--link Usuarios to Servicios--><g class="link" data-entity-1="Usuarios" data-entity-2="Servicios" data-source-line="66" data-uid="lnk12" id="link_Usuarios_Servicios"><path codeLine="66" d="M953.54,392.2 C940.26,401.94 927.24,411.89 914.92,421.86 C897,436.37 878.83,452.24 861.15,468.44" fill="none" id="Usuarios-Servicios" style="stroke:#181818;stroke-width:1;"/><polygon fill="#000000" points="923.7765,427.244,914.9295,430.7342,918.6706,435.2678,923.7765,427.244" style="stroke:#000000;stroke-width:1;"/><text fill="#000000" font-family="sans-serif" font-size="13" lengthAdjust="spacing" textLength="45.2397" x="928.92" y="434.9269">provee</text><text fill="#000000" font-family="sans-serif" font-size="13" lengthAdjust="spacing" textLength="8.271" x="934.0575" y="412.0526">1</text><text fill="#000000" font-family="sans-serif" font-size="13" lengthAdjust="spacing" textLength="23.0356" x="844.9433" y="457.5621">0..*</text></g><!--link TiposServicio to Servicios--><g class="link" data-entity-1="TiposServicio" data-entity-2="Servicios" data-source-line="67" data-uid="lnk13" id="link_TiposServicio_Servicios"><path codeLine="67" d="M744.36,318.96 C741.03,356.12 735.85,413.94 730.95,468.59" fill="none" id="TiposServicio-Servicios" style="stroke:#181818;stroke-width:1;"/><polygon fill="#000000" points="739.3663,425.4464,735.6317,434.193,741.4861,434.7177,739.3663,425.4464" style="stroke:#000000;stroke-width:1;"/><text fill="#000000" font-family="sans-serif" font-size="13" lengthAdjust="spacing" textLength="24.9146" x="747.92" y="434.9269">tipo</text><text fill="#000000" font-family="sans-serif" font-size="13" lengthAdjust="spacing" textLength="8.271" x="735.1775" y="338.7246">1</text><text fill="#000000" font-family="sans-serif" font-size="13" lengthAdjust="spacing" textLength="23.0356" x="708.0299" y="457.7199">0..*</text></g><!--link DisponibilidadServicio to Servicios--><g class="link" data-entity-1="DisponibilidadServicio" data-entity-2="Servicios" data-source-line="68" data-uid="lnk14" id="link_DisponibilidadServicio_Servicios"><path codeLine="68" d="M537.24,318.96 C559.99,356.12 595.39,413.94 628.85,468.59" fill="none" id="DisponibilidadServicio-Servicios" style="stroke:#181818;stroke-width:1;"/><polygon fill="#000000" points="611.3092,426.1621,613.5257,435.4108,618.5386,432.3417,611.3092,426.1621" style="stroke:#000000;stroke-width:1;"/><text fill="#000000" font-family="sans-serif" font-size="13" lengthAdjust="spacing" textLength="90.251" x="622.92" y="434.9269">disponibilidad</text><text fill="#000000" font-family="sans-serif" font-size="13" lengthAdjust="spacing" textLength="8.271" x="532.5002" y="338.7246">1</text><text fill="#000000" font-family="sans-serif" font-size="13" lengthAdjust="spacing" textLength="23.0356" x="600.6654" y="457.7199">0..*</text></g><!--link Servicios to Reservas--><g class="link" data-entity-1="Servicios" data-entity-2="Reservas" data-source-line="89" data-uid="lnk17" id="link_Servicios_Reservas"><path codeLine="89" d="M605.88,761.5 C581.67,792.92 556.66,825.39 534.32,854.38" fill="none" id="Servicios-Reservas" style="stroke:#181818;stroke-width:1;"/><polygon fill="#000000" points="588.9716,795.9256,581.1231,801.2971,585.7793,804.8844,588.9716,795.9256" style="stroke:#000000;stroke-width:1;"/><text fill="#000000" font-family="sans-serif" font-size="13" lengthAdjust="spacing" textLength="32.9443" x="594.92" y="804.3869">tiene</text><text fill="#000000" font-family="sans-serif" font-size="13" lengthAdjust="spacing" textLength="8.271" x="591.9038" y="781.5065">1</text><text fill="#000000" font-family="sans-serif" font-size="13" lengthAdjust="spacing" textLength="23.0356" x="516.137" y="843.4079">0..*</text></g><!--link EstadosReserva to Reservas--><g class="link" data-entity-1="EstadosReserva" data-entity-2="Reservas" data-source-line="90" data-uid="lnk18" id="link_EstadosReserva_Reservas"><path codeLine="90" d="M385.88,655.82 C398.07,704.41 419.13,788.34 435.67,854.31" fill="none" id="EstadosReserva-Reservas" style="stroke:#181818;stroke-width:1;"/><polygon fill="#000000" points="427.7035,795.0367,427.0536,804.525,432.7548,803.0949,427.7035,795.0367" style="stroke:#000000;stroke-width:1;"/><text fill="#000000" font-family="sans-serif" font-size="13" lengthAdjust="spacing" textLength="44.04" x="437.92" y="804.3869">estado</text><text fill="#000000" font-family="sans-serif" font-size="13" lengthAdjust="spacing" textLength="8.271" x="378.852" y="675.5846">1</text><text fill="#000000" font-family="sans-serif" font-size="13" lengthAdjust="spacing" textLength="23.0356" x="410.0457" y="843.6609">0..*</text></g><!--link Usuarios to Pagos--><g class="link" data-entity-1="Usuarios" data-entity-2="Pagos" data-source-line="112" data-uid="lnk21" id="link_Usuarios_Pagos"><path codeLine="112" d="M1194.49,392.14 C1281.39,558.32 1406.61,870.13 1250.92,1065.58 C1183.38,1150.37 911.25,1198.8 704.88,1223.94" fill="none" id="Usuarios-Pagos" style="stroke:#181818;stroke-width:1;"/><polygon fill="#000000" points="1331.4563,795.5775,1324.3353,801.8816,1329.4008,804.8632,1331.4563,795.5775" style="stroke:#000000;stroke-width:1;"/><text fill="#000000" font-family="sans-serif" font-size="13" lengthAdjust="spacing" textLength="43.3228" x="1337.92" y="804.3869">realiza</text><text fill="#000000" font-family="sans-serif" font-size="13" lengthAdjust="spacing" textLength="8.271" x="1190.4434" y="411.9888">1</text><text fill="#000000" font-family="sans-serif" font-size="13" lengthAdjust="spacing" textLength="23.0356" x="712.4943" y="1220.07">0..*</text></g><!--link Reservas to Pagos--><g class="link" data-entity-1="Reservas" data-entity-2="Pagos" data-source-line="113" data-uid="lnk22" id="link_Reservas_Pagos"><path codeLine="113" d="M459.92,1049.66 C459.92,1079.3 459.92,1112.03 459.92,1142.19" fill="none" id="Reservas-Pagos" style="stroke:#181818;stroke-width:1;"/><polygon fill="#000000" points="464.92,1099.1464,461.9811,1108.1915,467.8589,1108.1915,464.92,1099.1464" style="stroke:#000000;stroke-width:1;"/><text fill="#000000" font-family="sans-serif" font-size="13" lengthAdjust="spacing" textLength="32.4365" x="473.92" y="1108.6469">paga</text><text fill="#000000" font-family="sans-serif" font-size="13" lengthAdjust="spacing" textLength="8.271" x="451.636" y="1069.4584">1</text><text fill="#000000" font-family="sans-serif" font-size="13" lengthAdjust="spacing" textLength="23.0356" x="436.1488" y="1131.644">0..*</text></g><!--link EstadosPago to Pagos--><g class="link" data-entity-1="EstadosPago" data-entity-2="Pagos" data-source-line="114" data-uid="lnk23" id="link_EstadosPago_Pagos"><path codeLine="114" d="M124.21,992.58 C143.56,1015.18 169.31,1043.34 194.92,1065.58 C225.54,1092.19 260.16,1118.33 294.03,1142.12" fill="none" id="EstadosPago-Pagos" style="stroke:#181818;stroke-width:1;"/><polygon fill="#000000" points="251.1675,1100.842,256.0136,1109.0254,259.8981,1104.614,251.1675,1100.842" style="stroke:#000000;stroke-width:1;"/><text fill="#000000" font-family="sans-serif" font-size="13" lengthAdjust="spacing" textLength="44.04" x="263.92" y="1108.6469">estado</text><text fill="#000000" font-family="sans-serif" font-size="13" lengthAdjust="spacing" textLength="8.271" x="120.7407" y="1012.3287">1</text><text fill="#000000" font-family="sans-serif" font-size="13" lengthAdjust="spacing" textLength="23.0356" x="259.113" y="1131.5693">0..*</text></g><!--link Servicios to Preguntas--><g class="link" data-entity-1="Servicios" data-entity-2="Preguntas" data-source-line="132" data-uid="lnk25" id="link_Servicios_Preguntas"><path codeLine="132" d="M835.17,761.5 C855.8,787.1 877,813.39 896.79,837.93" fill="none" id="Servicios-Preguntas" style="stroke:#181818;stroke-width:1;"/><polygon fill="#000000" points="870.7818,795.9939,874.1709,804.8801,878.7468,801.1909,870.7818,795.9939" style="stroke:#000000;stroke-width:1;"/><text fill="#000000" font-family="sans-serif" font-size="13" lengthAdjust="spacing" textLength="40.3521" x="882.92" y="804.3869">recibe</text><text fill="#000000" font-family="sans-serif" font-size="13" lengthAdjust="spacing" textLength="8.271" x="833.0165" y="781.5065">1</text><text fill="#000000" font-family="sans-serif" font-size="13" lengthAdjust="spacing" textLength="23.0356" x="867.2168" y="827.2161">0..*</text></g><!--link Usuarios to Preguntas--><g class="link" data-entity-1="Usuarios" data-entity-2="Preguntas" data-source-line="133" data-uid="lnk26" id="link_Usuarios_Preguntas"><path codeLine="133" d="M1059.27,392.11 C1046.88,416.64 1035.52,443.01 1027.92,468.86 C991.83,591.53 984.52,738.8 984.52,838.03" fill="none" id="Usuarios-Preguntas" style="stroke:#181818;stroke-width:1;"/><polygon fill="#000000" points="1033.7466,610.2252,1029.3528,618.66,1035.1497,619.6317,1033.7466,610.2252" style="stroke:#000000;stroke-width:1;"/><text fill="#000000" font-family="sans-serif" font-size="13" lengthAdjust="spacing" textLength="59.3887" x="1041.92" y="619.6569">pregunta</text><text fill="#000000" font-family="sans-serif" font-size="13" lengthAdjust="spacing" textLength="8.271" x="1046.5608" y="411.9569">1</text><text fill="#000000" font-family="sans-serif" font-size="13" lengthAdjust="spacing" textLength="23.0356" x="960.567" y="827.3225">0..*</text></g><!--link Usuarios to Preguntas--><g class="link" data-entity-1="Usuarios" data-entity-2="Preguntas" data-source-line="134" data-uid="lnk27" id="link_Usuarios_Preguntas"><path codeLine="134" d="M1139.32,392.09 C1144.83,491.6 1143.94,639.32 1105.92,761.32 C1097.75,787.51 1085.09,813.71 1071.04,837.91" fill="none" id="Usuarios-Preguntas-1" style="stroke:#181818;stroke-width:1;"/><polygon fill="#000000" points="1146.677,610.214,1142.4026,618.7099,1148.2127,619.5998,1146.677,610.214" style="stroke:#000000;stroke-width:1;"/><text fill="#000000" font-family="sans-serif" font-size="13" lengthAdjust="spacing" textLength="60.8105" x="1154.92" y="619.6569">responde</text><text fill="#000000" font-family="sans-serif" font-size="13" lengthAdjust="spacing" textLength="8.271" x="1131.739" y="411.9356">1</text><text fill="#000000" font-family="sans-serif" font-size="13" lengthAdjust="spacing" textLength="23.0356" x="1052.6297" y="827.1948">0..*</text></g><!--SRC=[dLPBZvim4BxpAwnSDjjzgBr6tKfH6wtsqaPaqojoO4Yj4XlPpgfgrVzUFx2n2H0e9pp-vltDm0rwKW_Qx_RhzENRpfoIlC92eBquOqwOG7yIf9uxKcJdHhH2X4ehfUnquB12Gd8ho1ddm0A1X0fAHbc4eP9Z0HG7GdB2Hw2X8gcPS3upKhHU7nuQEnmmTuXbWIM-jHSubsTSaT_1RHl-FMhVCyb-0hr7_RebaoohWPUaccIdiS0E4YXurrdDk0e_qBnD_YPDbLzraasfWqf7kGVbrd9R8cyXPHM4JUBwFAxYMljAL9oHlkjmLEuxOzABb1dFZSM7XUe6Mhn_V7otwBExGb8VqAV4dYSeV4IgvBg2EIHHUVfrZOPECabkB9jtc_Jxo-SEdNV0tqWUyrausHYX2n0v9xM2XUIiEUIwCsN5i1mWi2zcpTaRGC4uT0fhs-p2YEyA8cf6oO5KfC15FoWU10Snat2LdJxv7cfte98LGPXYUJafLrmRYSCqsb2H4w6XxXIjmAUjzpprRlB1RBR8U3WTSIwcqocCpzgNg8qznWRw75W58N7HsXqOlfRWPeGCvP8uWp45Cq43mOxfnU7x6KmtUWhNqGYce9F3qR9gH46s9UG_S4QeQKzplz8B6YGvGOWf2Hq2jEIEPifMKZYjaLboWVqFeRtkg9OvDD1BSi_ntsF9yTmbsjBSupn3DxOeJNU2vdIgDSp8bX4nKtp3BS5KH4d7sGZU-l24sgwVuuM-nSTecTVw7CHuKZyPyOAshD6uBbq6FdjDEFqSqdPw2GJAZ-eZDuYsVttTkhgaJL9P0RF-FpmHZVPq5ffthTCJHC0WY-ZIHxUZXpkssZDNcMsj9e6QHJqFYMV6453vmKaOoX2mIwjqyxp_-XelgYs7uvdAQ5FLJXQkU_Wbm__QWQqJ_0TO6mFNgWtrMSSNtrlQ-iiETnthVBDSdD67iREgx8xpq1bBpcz76ypq_UISNN2qaIzdc-Xc75BK8qUsKzjboxIS762GaH7McP-6riLYj81_]--></g></svg>